<?xml version="1.0" standalone="no"?>
<!DOCTYPE svg PUBLIC "-//W3C//DTD SVG 20010904//EN"
 "http://www.w3.org/TR/2001/REC-SVG-20010904/DTD/svg10.dtd">
<svg version="1.0" xmlns="http://www.w3.org/2000/svg"
 width="700.000000pt" height="700.000000pt" viewBox="0 0 700.000000 700.000000"
 preserveAspectRatio="xMidYMid meet">
<metadata>
Created by potrace 1.11, written by Peter Selinger 2001-2013
</metadata>
<g transform="translate(0.000000,700.000000) scale(0.100000,-0.100000)"
fill="#000000" stroke="none">
<path d="M3280 6994 c-19 -2 -84 -9 -145 -15 -952 -92 -1837 -593 -2433 -1377
-374 -490 -603 -1073 -684 -1737 -16 -135 -16 -591 0 -730 83 -700 334 -1304
761 -1835 95 -119 317 -348 436 -450 534 -458 1162 -735 1880 -827 196 -25
614 -25 810 0 430 56 786 162 1155 346 999 498 1704 1446 1889 2541 36 214 46
332 46 590 0 145 -6 303 -13 365 -77 656 -304 1231 -687 1740 -108 144 -160
203 -318 363 -557 564 -1262 907 -2067 1008 -117 14 -552 27 -630 18z m-864
-2175 c419 -75 769 -391 888 -800 149 -515 -6 -1116 -398 -1544 -143 -157
-378 -335 -581 -440 -100 -52 -127 -52 -161 0 -21 32 -14 50 55 137 91 116
141 243 141 355 l0 64 -72 -7 c-206 -18 -485 59 -684 188 -99 64 -255 220
-319 317 -157 239 -217 559 -159 846 90 441 430 781 874 874 108 22 319 28
416 10z m2589 -17 c208 -59 353 -142 507 -290 327 -316 434 -789 298 -1322
-122 -478 -475 -893 -987 -1160 -75 -39 -85 -42 -111 -31 -28 12 -52 47 -52
75 0 7 25 44 55 82 101 127 155 258 155 378 l0 57 -72 -7 c-146 -13 -353 26
-514 97 -451 198 -715 649 -666 1137 27 270 133 495 321 683 165 165 379 276
616 319 88 16 370 4 450 -18z"/>
<path d="M2075 4676 c-218 -35 -403 -133 -550 -287 -472 -498 -324 -1278 298
-1569 153 -72 216 -84 438 -84 146 -1 200 -4 212 -14 41 -34 45 -241 7 -365
-11 -33 -17 -63 -15 -66 9 -9 202 146 285 230 334 333 506 805 455 1246 -25
214 -73 349 -176 498 -65 95 -205 228 -295 281 -90 53 -201 98 -292 118 -101
23 -269 28 -367 12z"/>
<path d="M4630 4683 c-571 -59 -973 -614 -856 -1183 58 -277 265 -537 533
-670 162 -79 305 -106 510 -96 86 4 140 3 153 -4 50 -27 60 -240 17 -372 -14
-43 -20 -75 -13 -71 56 34 179 134 260 213 312 300 486 698 486 1112 0 345
-103 607 -318 809 -208 197 -488 291 -772 262z"/>
</g>
</svg>
