<?xml version="1.0" encoding="UTF-8"?><svg xmlns="http://www.w3.org/2000/svg" height="484.17pt" version="1.1" viewBox="0 0 484.17 484.17" width="484.17pt">
 <g id="surface1">
  <g id="change1_1"><path d="m484.17 242.09c0 133.7-108.38 242.08-242.08 242.08s-242.09-108.38-242.09-242.08 108.39-242.09 242.09-242.09 242.08 108.39 242.08 242.09" fill="#47a1ad"/></g>
  <g id="change2_1"><path d="m224.27 218.48c-0.06 0.04-0.12 0.08-0.17 0.13 2.52 1.44 5.04 2.89 7.56 4.34-2.21-31.26-22.54-58.12-51.99-68.79-29.29-10.61-63.12-1.37-83.775 21.63-21.055 23.44-25.36 57.72-11.942 86 13.395 28.24 44.007 45.47 74.957 43.59 3.29-0.2 6.57-0.69 9.8-1.27-2.06-1.16-4.12-2.34-6.18-3.5 3.57 13.96-2.87 26.91-12.13 37.15-3.91 4.33 0.96 10.42 6.09 7.9 26.15-12.88 49.23-32.28 62.81-58.41 8.41-16.2 12.95-34.44 13.18-52.69 0.05-4.36-0.13-8.77-0.83-13.08-1.04-6.38-10.72-3.66-9.69 2.67 0.08 0.5 0.19 1.4-0.1-0.76 0.07 0.55 0.13 1.1 0.19 1.65 0.2 1.96 0.3 3.94 0.35 5.91 0.08 3 0.01 6-0.17 8.99-0.25 4.24-0.61 7.08-1.19 10.62-3.62 21.64-13.74 41.5-28.84 57.4-11.6 12.22-25.73 21.61-40.78 29.02 2.03 2.63 4.06 5.26 6.09 7.89 11.72-12.97 19.2-29.35 14.71-46.94-0.73-2.83-3.53-3.98-6.18-3.51-30.83 5.49-61.18-11.05-74.161-39.3-12.586-27.4-3.899-60.28 18.621-79.55 19.11-16.35 47.32-20.21 70.29-10.24 23.09 10.02 39.05 32.52 40.82 57.62 0.24 3.36 4.25 6.82 7.56 4.33 0.06-0.04 0.12-0.08 0.17-0.12 2.18-1.64 3.31-4.31 1.8-6.88-1.26-2.16-4.68-3.45-6.87-1.8" fill="#fff"/></g>
  <g id="change2_2"><path d="m397.73 218.48c-0.06 0.04-0.12 0.08-0.17 0.13 2.52 1.44 5.04 2.89 7.56 4.34-2.21-31.26-22.53-58.12-51.99-68.79-29.29-10.61-63.12-1.37-83.77 21.63-21.06 23.44-25.36 57.72-11.95 86 13.4 28.24 44.01 45.47 74.97 43.59 3.28-0.2 6.56-0.69 9.79-1.27-2.06-1.16-4.12-2.34-6.18-3.5 3.57 13.96-2.87 26.91-12.13 37.15-3.91 4.33 0.96 10.42 6.09 7.9 26.16-12.88 49.23-32.28 62.81-58.42 8.42-16.19 12.95-34.43 13.18-52.68 0.05-4.36-0.13-8.77-0.83-13.08-1.04-6.38-10.72-3.67-9.69 2.67 0.08 0.5 0.19 1.4-0.1-0.76 0.07 0.55 0.13 1.1 0.19 1.65 0.2 1.96 0.3 3.94 0.35 5.91 0.09 3 0.01 6-0.16 8.99-0.25 4.24-0.61 7.08-1.2 10.62-3.62 21.64-13.74 41.5-28.85 57.4-11.59 12.22-25.72 21.61-40.77 29.02 2.03 2.63 4.06 5.26 6.09 7.89 11.73-12.97 19.21-29.35 14.71-46.94-0.73-2.83-3.53-3.98-6.18-3.51-30.83 5.49-61.18-11.05-74.16-39.31-12.59-27.39-3.9-60.27 18.62-79.54 19.1-16.35 47.32-20.21 70.29-10.24 23.08 10.02 39.05 32.52 40.82 57.61 0.23 3.38 4.25 6.82 7.56 4.34 0.06-0.04 0.11-0.08 0.17-0.12 2.18-1.64 3.31-4.31 1.8-6.88-1.26-2.16-4.67-3.45-6.87-1.8" fill="#fff"/></g>
 </g>
</svg>