<?xml version="1.0" encoding="UTF-8"?><svg xmlns="http://www.w3.org/2000/svg" height="293.24pt" version="1.1" viewBox="0 0 492.06 293.24" width="492.06pt">
 <g fill="#47a1ad" id="change1_1">
  <path d="m220.88 102.53c-0.08 0.07-0.17 0.13-0.25 0.19l11.28 6.48c-3.29-46.653-33.63-86.743-77.59-102.66-43.72-15.841-94.218-2.0478-125.04 32.276-31.432 34.996-37.854 86.154-17.831 128.36 19.996 42.15 65.688 67.86 111.89 65.05 4.9-0.3 9.79-1.02 14.62-1.88-3.07-1.74-6.15-3.49-9.23-5.24 5.33 20.85-4.28 40.18-18.1 55.46-5.84 6.47 1.44 15.55 9.09 11.79 39.04-19.23 73.48-48.18 93.75-87.19 12.56-24.17 19.33-51.4 19.67-78.63 0.08-6.5-0.19-13.09-1.24-19.52-1.55-9.532-16.01-5.48-14.46 3.98 0.12 0.74 0.29 2.09-0.15-1.14 0.11 0.82 0.2 1.64 0.28 2.47 0.3 2.93 0.45 5.87 0.53 8.82 0.12 4.47 0.01 8.95-0.25 13.41-0.37 6.33-0.91 10.58-1.79 15.86-5.4 32.3-20.5 61.95-43.05 85.68-17.31 18.22-38.39 32.24-60.86 43.3 3.03 3.93 6.06 7.86 9.09 11.78 17.51-19.36 28.67-43.8 21.96-70.06-1.08-4.22-5.27-5.94-9.23-5.23-46.009 8.18-91.306-16.5-110.68-58.67-18.794-40.89-5.821-89.962 27.784-118.72 28.516-24.41 70.626-30.176 104.92-15.293 34.46 14.949 58.28 48.535 60.92 85.993 0.36 5.03 6.36 10.19 11.29 6.48 0.09-0.07 0.17-0.13 0.25-0.2 3.26-2.44 4.94-6.42 2.69-10.26-1.88-3.22-6.98-5.15-10.26-2.69" fill="inherit"/>
  <path d="m479.79 102.53c-0.09 0.07-0.17 0.13-0.25 0.19l11.28 6.48c-3.29-46.653-33.64-86.743-77.6-102.66-43.71-15.841-94.22-2.0478-125.04 32.276-31.43 34.993-37.85 86.154-17.83 128.36 20 42.15 65.69 67.86 111.89 65.05 4.9-0.3 9.8-1.02 14.62-1.88-3.07-1.74-6.15-3.49-9.22-5.24 5.33 20.85-4.28 40.18-18.1 55.46-5.84 6.47 1.44 15.55 9.08 11.79 39.04-19.23 73.49-48.18 93.76-87.19 12.55-24.17 19.33-51.4 19.66-78.63 0.08-6.5-0.19-13.09-1.24-19.52-1.55-9.532-16-5.48-14.46 3.98 0.12 0.74 0.29 2.09-0.14-1.14 0.1 0.82 0.19 1.64 0.28 2.47 0.29 2.93 0.45 5.87 0.52 8.82 0.12 4.47 0.02 8.95-0.25 13.41-0.37 6.33-0.9 10.58-1.79 15.86-5.39 32.3-20.5 61.95-43.04 85.68-17.31 18.22-38.4 32.24-60.87 43.3 3.04 3.93 6.06 7.86 9.09 11.78 17.51-19.36 28.68-43.8 21.96-70.06-1.08-4.22-5.26-5.94-9.22-5.23-46.01 8.18-91.31-16.5-110.69-58.67-18.79-40.89-5.82-89.962 27.79-118.72 28.51-24.41 70.63-30.176 104.92-15.293 34.45 14.949 58.28 48.535 60.92 85.993 0.36 5.03 6.34 10.18 11.29 6.48 0.08-0.07 0.16-0.13 0.25-0.2 3.26-2.44 4.93-6.43 2.69-10.26-1.89-3.22-6.98-5.15-10.26-2.69" fill="inherit"/>
 </g>
</svg>