<?xml version="1.0" encoding="utf-8"?>
<!-- Generator: Adobe Illustrator 16.0.0, SVG Export Plug-In . SVG Version: 6.00 Build 0)  -->
<!DOCTYPE svg PUBLIC "-//W3C//DTD SVG 1.1//EN" "http://www.w3.org/Graphics/SVG/1.1/DTD/svg11.dtd">
<svg version="1.1" id="Layer_1" xmlns="http://www.w3.org/2000/svg" xmlns:xlink="http://www.w3.org/1999/xlink" x="0px" y="0px"
	 width="50px" height="50px" viewBox="0 0 50 50" enable-background="new 0 0 50 50" xml:space="preserve">
<path fill="#56BFC8" d="M45.382,28.32c-0.1,0-0.197,0.006-0.294,0.014c0.025-0.137,0.04-0.275,0.04-0.418
	c0-1.26-1.022-2.283-2.283-2.283c-0.625,0-1.19,0.252-1.604,0.658c-0.447-0.627-1.181-1.038-2.012-1.038
	c-0.798,0-1.506,0.379-1.958,0.965c-0.271-0.269-0.643-0.437-1.056-0.437c-0.016,0-0.03,0.005-0.046,0.006
	c0.009-0.086,0.015-0.173,0.015-0.261c0-1.297-1.05-2.348-2.346-2.348c-0.547,0-1.047,0.188-1.446,0.502
	c-0.198-0.878-0.979-1.535-1.915-1.535c-0.332,0-0.638,0.09-0.911,0.233c0.015-0.132,0.022-0.267,0.022-0.402
	c0-2.032-1.646-3.679-3.679-3.679c-0.581,0-1.129,0.139-1.618,0.379c-0.252-2.177-2.1-3.867-4.344-3.867
	c-2.379,0-4.31,1.898-4.371,4.264c-0.092-0.008-0.186-0.015-0.28-0.015c-1.508,0-2.791,0.954-3.287,2.29
	c-1.337,0.072-2.4,1.176-2.4,2.53c0,0.251,0.038,0.492,0.105,0.721c-0.286-0.097-0.591-0.149-0.909-0.149
	c-1.588,0-2.875,1.286-2.875,2.875c0,0.361,0.07,0.707,0.192,1.027C5.97,28.334,5.813,28.32,5.65,28.32
	c-1.436,0-2.6,0.842-2.6,1.881c0,0.918,0.914,1.682,2.121,1.846v0.033h40.211c1.436,0,2.6-0.842,2.6-1.879
	C47.981,29.162,46.817,28.32,45.382,28.32z"/>
</svg>
