<?xml version="1.0" encoding="utf-8"?>
<!-- Generator: Adobe Illustrator 16.0.0, SVG Export Plug-In . SVG Version: 6.00 Build 0)  -->
<!DOCTYPE svg PUBLIC "-//W3C//DTD SVG 1.1//EN" "http://www.w3.org/Graphics/SVG/1.1/DTD/svg11.dtd">
<svg version="1.1" id="Layer_1" xmlns="http://www.w3.org/2000/svg" xmlns:xlink="http://www.w3.org/1999/xlink" x="0px" y="0px"
	 width="491.921px" height="126.621px" viewBox="0 0 491.921 126.621" enable-background="new 0 0 491.921 126.621"
	 xml:space="preserve">
<g id="change2_1_">
	<g>
		<path fill="#395A97" d="M156.87,8.646h22.793v5.808h-16.164v9.041h13.15v5.752h-13.15V42.89h-6.629V8.646z"/>
		<path fill="#395A97" d="M187.443,13.029c-2.521,0-3.945-1.534-3.945-3.89c0-2.301,1.424-3.891,3.945-3.891
			c2.575,0,4,1.589,4,3.891C191.442,11.495,190.018,13.029,187.443,13.029z M184.21,42.89V17.795l6.466-0.932V42.89H184.21z"/>
		<path fill="#395A97" d="M213.265,42.89V27.493c0-3.726-1.479-4.985-4.383-4.985c-2.247,0-4.33,1.15-5.589,2.355V42.89h-6.465
			V17.74l6.465-0.876c0,0,0,3.835,0,4c2.247-2.466,5.26-4.055,8.328-4.055c5.096,0,8.11,3.288,8.11,8.712V42.89H213.265z"/>
		<path fill="#395A97" d="M242.6,6.289l6.466-0.876V42.89H242.6c0,0,0-2.191,0-2.466c-1.697,1.644-3.999,3.288-7.123,3.288
			c-6.684,0-11.012-5.424-11.012-13.26c0-8.054,5.588-13.644,12.766-13.644c1.809,0,3.782,0.33,5.37,0.822L242.6,6.289L242.6,6.289z
			 M237.833,21.959c-4.329,0-6.794,3.562-6.794,8.219c0,4.931,2.466,8.054,6.356,8.054c2.137,0,3.78-0.768,5.204-2.083
			c0,0.22,0-12.711,0-12.711C241.34,22.508,239.751,21.959,237.833,21.959z"/>
		<path fill="#395A97" d="M274.71,17.631v15.397c0,3.725,1.531,4.93,4.272,4.93c2.3,0,4.328-1.041,5.532-2.191V17.631h6.466v25.095
			l-6.466,0.876c0,0,0-3.507,0-3.726c-2.081,2.246-5.096,3.835-8.327,3.835c-4.931,0-7.944-3.288-7.944-8.712V17.631H274.71z"/>
		<path fill="#395A97" d="M305.371,43.767c-3.289,0-7.287-0.931-9.81-2.356l1.426-5.041c2.521,1.424,5.753,2.355,8.548,2.355
			c2.52,0,4.164-1.041,4.164-2.794c0-1.973-2.139-2.685-5.096-3.397c-4.77-1.095-8.549-3.068-8.549-7.835
			c0-4.767,3.998-7.891,10.08-7.891c3.125,0,6.85,0.822,9.207,2.028l-1.426,5.04c-2.465-1.26-5.697-2.082-7.944-2.082
			c-2.356,0-3.779,0.877-3.779,2.521c0,1.917,2.138,2.575,5.097,3.287c4.82,1.151,8.602,3.014,8.602,7.945
			C315.888,40.26,311.833,43.767,305.371,43.767z"/>
		<path fill="#395A97" d="M344.927,43.712c-7.396,0-12.766-5.041-12.766-13.424c0-8.329,5.643-13.534,13.098-13.534
			c7.449,0,12.766,5.15,12.766,13.479C358.025,38.506,352.328,43.712,344.927,43.712z M345.039,21.959
			c-4.219,0-6.52,3.397-6.52,8.274c0,4.821,2.408,8.219,6.631,8.219c4.162,0,6.463-3.288,6.463-8.164S349.205,21.959,345.039,21.959
			z"/>
		<path fill="#395A97" d="M379.273,42.89V27.493c0-3.726-1.479-4.985-4.383-4.985c-2.248,0-4.332,1.15-5.59,2.355V42.89h-6.465
			V17.74l6.465-0.876c0,0,0,3.835,0,4c2.246-2.466,5.26-4.055,8.328-4.055c5.096,0,8.109,3.288,8.109,8.712V42.89H379.273z"/>
	</g>
	<g>
		<g>
			<path fill="#395A97" d="M156.87,65.725h36.042v9.183h-25.559v14.297h20.794V98.3h-20.794v21.574H156.87V65.725z"/>
			<path fill="#395A97" d="M217.894,115.281c-2.859,3.467-6.325,5.893-11.264,5.893c-7.191,0-12.389-4.938-12.389-11.264
				c0-7.363,5.372-13.603,23.653-14.209v-0.953c0-5.371-2.253-7.623-7.971-7.623c-4.072,0-9.011,1.817-13.256,4.244l-2.078-8.058
				c3.898-2.427,10.136-4.679,16.72-4.679c12.304,0,17.067,5.457,16.808,16.461v14.295c0,3.033,0.52,3.467,3.553,3.641l-0.781,7.711
				c-7.625,0.866-11.176-1.474-12.648-5.459H217.894z M217.894,101.071c-9.963,1.214-13.602,3.206-13.602,7.452
				c0,3.033,2.338,5.199,5.979,5.199c3.205,0,5.803-1.475,7.624-3.467L217.894,101.071L217.894,101.071z"/>
			<path fill="#395A97" d="M255.472,121.173c-12.997,0-20.708-8.059-20.708-21.141c0-12.996,8.491-21.398,21.054-21.398
				c5.458,0,10.137,1.212,13.775,3.377l-2.165,8.23c-3.294-2.078-7.104-3.205-10.831-3.205c-7.364,0-11.349,5.023-11.349,12.735
				c0,8.146,4.591,12.91,11.349,12.91c4.158,0,7.971-1.126,11.09-3.118l1.646,8.316C265.869,119.96,260.843,121.173,255.472,121.173
				z"/>
			<path fill="#395A97" d="M283.078,102.112c0.434,6.498,4.854,10.917,11.957,10.917c4.244,0,8.838-1.387,12.475-3.641l1.303,8.492
				c-3.812,2.078-9.1,3.291-14.471,3.291c-12.82,0-21.312-8.144-21.312-20.879c0-12.996,8.664-21.66,20.619-21.66
				c10.57,0,16.463,6.412,16.463,16.201c0,2.166-0.35,4.938-0.865,6.67c-0.088,0-26.168,0.349-26.168,0.349V102.112L283.078,102.112
				z M300.494,95.787c0-0.172,0-0.604,0-0.693c0-5.369-2.34-8.75-7.625-8.75c-5.633,0-9.01,4.593-9.529,9.531L300.494,95.787z"/>
			<path fill="#395A97" d="M336.095,121.085c-2.598,0-6.322-0.521-8.922-1.385l-9.791,1.473V61.998l10.225-1.386
				c0,0,0,22.7,0,23.132c2.686-2.599,6.322-5.109,11.178-5.109c10.566,0,17.5,8.574,17.5,20.879
				C356.285,112.25,347.447,121.085,336.095,121.085z M335.837,87.208c-3.381,0-5.979,1.301-8.23,3.293c0-0.26,0,20.188,0,20.188
				c1.906,1.472,4.504,2.252,7.535,2.252c6.848,0,10.744-5.546,10.744-12.997C345.886,92.148,342.16,87.208,335.837,87.208z"/>
			<path fill="#395A97" d="M381.318,121.173c-11.697,0-20.188-7.971-20.188-21.229c0-13.169,8.924-21.398,20.709-21.398
				c11.781,0,20.188,8.146,20.188,21.313C402.025,112.941,393.013,121.173,381.318,121.173z M381.49,86.776
				c-6.67,0-10.309,5.372-10.309,13.084c0,7.624,3.811,12.995,10.482,12.995c6.586,0,10.225-5.197,10.225-12.91
				C391.888,92.235,388.076,86.776,381.49,86.776z"/>
			<path fill="#395A97" d="M427.171,121.173c-11.695,0-20.188-7.971-20.188-21.229c0-13.169,8.926-21.398,20.707-21.398
				c11.783,0,20.186,8.146,20.186,21.313C447.876,112.941,438.869,121.173,427.171,121.173z M427.345,86.776
				c-6.672,0-10.311,5.372-10.311,13.084c0,7.624,3.811,12.995,10.482,12.995c6.584,0,10.223-5.197,10.223-12.91
				C437.742,92.235,433.931,86.776,427.345,86.776z"/>
			<path fill="#395A97" d="M465.15,100.639v19.235h-10.225V61.998l10.225-1.386v37.082h0.172l14.295-17.761h12.217l-16.547,18.975
				l16.635,20.967h-12.217l-14.383-19.234L465.15,100.639L465.15,100.639z"/>
		</g>
	</g>
</g>
<g id="change2">
	<path fill="#3D5A98" d="M119.632,0H6.988C3.126,0,0,3.127,0,6.989v112.643c0,3.857,3.126,6.988,6.988,6.988h112.644
		c3.857,0,6.987-3.131,6.987-6.988V6.989C126.619,3.127,123.489,0,119.632,0z"/>
</g>
<g id="change1">
	<path fill="#FFFFFF" d="M103.825,77.585l2.463-19.108H87.366V46.275c0-5.532,1.536-9.303,9.47-9.303l10.118-0.004V19.876
		c-1.75-0.231-7.755-0.752-14.745-0.752c-14.59,0-24.578,8.905-24.578,25.26v14.093h-16.5v19.108h16.5v49.035h19.735V77.585H103.825
		z"/>
</g>
</svg>
