<?xml version="1.0" encoding="utf-8"?>
<!-- Generator: Adobe Illustrator 16.0.0, SVG Export Plug-In . SVG Version: 6.00 Build 0)  -->
<!DOCTYPE svg PUBLIC "-//W3C//DTD SVG 1.1//EN" "http://www.w3.org/Graphics/SVG/1.1/DTD/svg11.dtd">
<svg version="1.1" id="Layer_1" xmlns="http://www.w3.org/2000/svg" xmlns:xlink="http://www.w3.org/1999/xlink" x="0px" y="0px"
	 width="50px" height="50px" viewBox="0 0 50 50" enable-background="new 0 0 50 50" xml:space="preserve">
<path fill="#00ACB7" d="M3.616,30.278c0.107,0,0.213,0.006,0.316,0.014c-0.027-0.146-0.043-0.295-0.043-0.448
	c0-1.357,1.101-2.458,2.458-2.458c0.672,0,1.281,0.271,1.725,0.709c0.483-0.676,1.272-1.118,2.166-1.118
	c0.859,0,1.621,0.408,2.108,1.04c0.291-0.291,0.692-0.471,1.135-0.471c0.017,0,0.033,0.005,0.05,0.005
	c-0.01-0.091-0.017-0.186-0.017-0.28c0-1.395,1.131-2.525,2.526-2.525c0.588,0,1.128,0.202,1.557,0.54
	c0.212-0.945,1.053-1.653,2.062-1.653c0.355,0,0.686,0.096,0.98,0.251c-0.016-0.142-0.025-0.286-0.025-0.433
	c0-2.188,1.773-3.959,3.959-3.959c0.626,0,1.216,0.149,1.742,0.407c0.271-2.342,2.26-4.162,4.676-4.162
	c2.561,0,4.639,2.045,4.704,4.59c0.1-0.008,0.2-0.016,0.302-0.016c1.624,0,3.005,1.027,3.538,2.465
	c1.439,0.077,2.584,1.265,2.584,2.724c0,0.27-0.041,0.529-0.113,0.775c0.308-0.103,0.636-0.161,0.978-0.161
	c1.71,0,3.095,1.386,3.095,3.095c0,0.391-0.074,0.763-0.206,1.106c0.165-0.022,0.335-0.035,0.51-0.035
	c1.546,0,2.799,0.905,2.799,2.023c0,0.988-0.984,1.812-2.283,1.986v0.036H3.616c-1.546,0-2.799-0.905-2.799-2.022
	C0.817,31.184,2.07,30.278,3.616,30.278z"/>
</svg>
