<?xml version="1.0" encoding="utf-8"?>
<!-- Generator: Adobe Illustrator 16.0.0, SVG Export Plug-In . SVG Version: 6.00 Build 0)  -->
<!DOCTYPE svg PUBLIC "-//W3C//DTD SVG 1.1//EN" "http://www.w3.org/Graphics/SVG/1.1/DTD/svg11.dtd">
<svg version="1.1" id="Layer_1" xmlns="http://www.w3.org/2000/svg" xmlns:xlink="http://www.w3.org/1999/xlink" x="0px" y="0px"
	 width="100px" height="100px" viewBox="0 0 100 100" enable-background="new 0 0 100 100" xml:space="preserve">
<g>
	<path fill="#D7DCEF" d="M49.465,78.896H17.076c0,0-12.361-0.282-10.383,3.938c1.978,4.22,13.844,1.57,13.103,4.255
		s0.742,6.888,14.586,6.888c13.844,0,19.035-0.741,18.295-2.473c-0.742-1.73,16.316-2.967,20.518-1.235
		c4.203,1.73,19.16-0.866,20.273-5.267c0.852-3.37-8.406-6.109-13.721-6.109L49.465,78.896z"/>
	<g>
		<path fill="#00A3AF" d="M31.08,52.22c0,0-2.842,5.591-2.578,12.982l5.72,3.064c0,0-1.068-9.766,3.073-14.339L31.08,52.22z"/>
		<path fill="#202623" d="M37.904,83.1c0,0-5.872,3.399-9.209,1.112c-3.337-2.286,4.604-3.546,4.604-3.546L37.904,83.1z"/>
		<path fill="#202623" d="M61.768,83.1c0,0,5.871,3.399,9.209,1.112c3.336-2.286-4.605-3.546-4.605-3.546L61.768,83.1z"/>
		<path fill="#006269" d="M40.222,85.003c0,0-10.754-4.635-16.502-12.979s3.708-8.715,6.489-7.603s10.754,5.748,10.754,5.748
			L40.222,85.003z"/>
		<path fill="#006269" d="M60.441,85.912c0,0,10.754-4.636,16.5-12.979c5.748-8.343-3.707-8.714-6.488-7.602
			s-10.754,5.748-10.754,5.748L60.441,85.912z"/>
		<path fill="#006269" d="M38.646,68.267c0,0-4.265,8.438-0.741,14.833c3.142,5.705,20.023,3.894,22.434,2.967
			s3.523-5.006,2.596-11.125c-0.926-6.118-2.596-6.675-2.596-6.675H38.646z"/>
		<path fill="#00A3AF" d="M38.646,68.267c0,0-3.337-7.231,0-20.024h21.825c0,0,2.914,9.826,0,20.024H38.646z"/>
		<path fill="#00A3AF" d="M82.402,20.801c0,0-5.486,23.918-20.635,37.453l-1.297-10.012c0,0,14.156-16.502,19.064-29.852
			C79.535,18.39,81.105,18.39,82.402,20.801z"/>
		<path fill="#202623" d="M54.035,11.345c0,0-8.9-2.596-14.277,3.894s-1.483,15.019-2.596,17.614s-10.939,4.265-10.754,12.794
			c0.186,8.528,8.711,9.085,13.812,8.344c5.101-0.742,4.359,6.489,16.966,5.191c12.609-1.298,8.609-14.833,3.285-17.985
			c-2.543-2.04,3.629-2.767,5.086-6.111s1.857-8.258-1.295-13.821S61.357,12.55,54.035,11.345z"/>
		<path fill="#DCAB9E" d="M79.535,18.39c0,0,2.311-8.622,2.867-10.847c0.557-2.225,1.762-1.483,2.039-1.02
			c0.279,0.463,0.371,2.132,0,3.894c-0.369,1.761,1.205,1.483,1.576,3.245c0.371,1.762-3.615,7.139-3.615,7.139
			S81.58,18.39,79.535,18.39z"/>
	</g>
</g>
</svg>
